<?xml version="1.0" encoding="UTF-8" standalone="no"?>
<svg xmlns:inkscape="http://www.inkscape.org/namespaces/inkscape" xmlns:sodipodi="http://sodipodi.sourceforge.net/DTD/sodipodi-0.dtd" xmlns="http://www.w3.org/2000/svg" xmlns:svg="http://www.w3.org/2000/svg" id="svg" version="1.1" width="152" height="123" viewBox="0 0 152 123.00001" sodipodi:docname="giteafpy.svg" inkscape:version="1.2.1 (9c6d41e410, 2022-07-14)">
  <defs id="defs15"/>
  
  <g id="svgg" transform="rotate(-5.1380542,-1084.9962,1381.2979)">
    <g id="g316" inkscape:label="g316">
      <path id="path0" style="display:inline;fill:#000000" inkscape:label="path0" d="M 189.9966 109.3259 C 189.73507 109.30194 189.47357 109.27887 189.21053 109.25718 C 185.93722 108.98731 182.56685 108.89519 179.5831 109.02687 C 154.80016 110.12387 140.18553 122.67865 149.38453 134.96963 C 152.55351 139.20361 156.27982 141.81617 164.1678 145.33717 C 165.10387 145.79807 166.20874 146.27133 166.36274 146.39933 C 166.61174 146.60733 166.60231 146.35513 168.09531 145.14516 C 169.98229 143.61616 169.56112 143.43275 168.74512 142.78175 C 167.65512 141.91175 166.86908 140.28815 166.44008 138.01515 C 166.09208 136.17115 166.52188 135.12255 168.18788 133.73455 C 168.58888 133.40055 168.95422 133.07447 169.00022 133.00947 C 169.04622 132.94447 169.75889 132.37967 170.58389 131.75367 C 173.55989 129.49667 175.33354 127.10176 175.33354 125.34076 C 175.33354 123.14276 182.32328 122.02934 185.63726 123.69832 L 186.69345 124.2306 L 188.13845 124.01539 C 188.93345 123.89739 190.32586 123.70183 191.23286 123.57983 C 202.38984 122.08583 210.90853 134.69978 205.99153 145.43076 C 204.97655 147.64576 204.66019 147.74564 197.95721 147.96164 C 193.13921 148.11664 193.45776 148.26753 194.48976 146.30853 C 194.85076 145.62253 195.3042 144.65355 195.4952 144.15555 C 195.6862 143.65755 195.91176 143.10097 195.99476 142.91797 C 196.46076 141.89297 197.16399 138.51245 197.00199 138.08445 L 196.83056 137.63566 L 196.2797 137.96068 C 195.9767 138.13868 195.2083 138.45424 194.5733 138.66224 C 193.1293 139.13324 192.11742 139.70073 190.41642 140.99073 C 185.97344 144.35873 173.33964 145.81774 170.67066 143.91774 C 169.53894 144.91494 160.38161 154.9372 157.0214 153.69559 C 156.11217 153.37591 154.86577 152.85328 153.86282 152.35853 C 145.46684 149.29653 137.93418 142.91184 134.41518 135.87486 C 133.29518 133.63386 133.28922 133.63144 133.39722 135.37544 C 133.44322 136.13144 133.5286 137.61226 133.5856 138.66726 C 133.6416 139.72124 133.76308 140.95819 133.85408 141.41719 C 133.94408 141.87519 134.12965 142.88621 134.26565 143.66621 C 135.26865 149.44021 137.88867 156.49334 141.10667 162.08334 C 143.01565 165.40134 144.26181 167.25552 146.85881 170.64852 C 149.69281 174.3495 155.90988 179.69624 160.49988 182.37822 C 182.64384 195.3202 209.88421 190.3191 226.57819 170.24914 C 233.28017 162.19316 237.23234 154.36107 239.77334 144.10509 C 240.10234 142.77509 240.02159 142.79671 239.04659 144.29271 C 233.67259 152.54169 221.78164 158.18742 208.61266 158.74242 C 204.36468 158.92142 204.02222 158.70589 207.44222 157.99789 C 219.09418 155.58689 223.21992 154.23924 228.24992 151.19926 C 245.89488 140.53628 242.91592 124.04639 221.38396 113.19141 C 218.92898 111.95343 218.58489 111.87285 220.53889 112.99385 C 241.22185 124.85281 242.76187 141.28472 224.06491 150.6347 C 216.33193 154.50168 209.71381 155.86711 195.25085 156.57811 C 194.15085 156.63211 192.94916 156.70896 192.58216 156.74996 C 192.21616 156.79096 190.22893 156.86581 188.16693 156.91381 C 176.52595 157.18481 176.43431 157.19198 174.62133 158.10198 C 167.88133 161.48496 170.31726 171.77309 177.74524 171.29609 C 181.14724 171.07809 181.83712 170.24886 187.57512 159.46088 C 188.22412 158.24088 187.84996 158.33638 193.06796 158.06438 C 198.11894 157.80038 197.85992 157.76113 197.33792 158.70913 C 196.84392 159.60713 193.6597 165.23521 192.8377 166.66621 C 192.4947 167.26121 191.63248 168.79964 190.92248 170.08264 C 187.2235 176.76362 183.27181 179.5207 177.41681 179.5067 C 165.12185 179.4767 158.34095 165.1342 165.98693 155.33322 C 167.98896 153.03223 170.55993 150.80505 173.91595 150.17884 C 183.02728 149.11813 181.71835 149.50235 189.49901 149.40527 C 207.05997 149.18927 213.50318 148.13844 219.91716 144.44344 C 231.89614 137.54246 230.64558 126.17077 216.9876 117.79079 C 215.0926 116.62879 214.19471 116.16762 210.66671 114.54762 C 208.75471 113.66962 204.77156 112.28015 202.16758 111.58315 C 201.57158 111.42415 200.74549 111.19693 200.33249 111.07693 C 197.64621 110.29752 193.91957 109.68531 189.9966 109.3259 z M 158.67425 106.83109 C 158.66672 106.82977 158.65585 106.83072 158.64083 106.832 C 158.49661 106.84436 158.00681 106.9776 157.16719 107.23485 C 146.48121 110.51185 138.86214 115.91062 135.99216 122.2406 C 131.41916 132.32358 140.00723 144.84947 155.89421 151.27045 C 157.6528 152.05492 159.6033 153.41628 160.6317 152.62595 C 161.48568 151.96995 160.34562 151.19196 159.99102 150.98385 C 156.91039 149.16369 153.47747 147.91778 150.46065 145.87937 C 150.02665 145.57837 149.62059 145.33368 149.56059 145.33368 C 149.44159 145.33368 148.74802 144.83255 146.70102 143.26655 C 131.42004 131.57257 135.80522 115.6852 156.50018 107.76122 C 158.0576 107.16473 158.78714 106.85091 158.67425 106.83109 z M 252.24579 131.42894 C 251.49356 131.36119 250.69114 131.30862 249.83264 131.26687 C 245.82064 131.07087 241.83345 130.96458 241.83345 131.05158 C 241.83345 131.10358 241.90231 131.3288 241.98831 131.5538 C 242.47331 132.8298 242.51525 135.78928 242.08525 138.41426 C 241.85525 139.82526 241.66716 141.57464 241.66716 142.30064 L 241.66616 143.62031 L 242.44289 143.72741 C 242.86889 143.78541 243.29984 143.89927 243.40084 143.97827 C 243.95984 144.42027 244.86216 144.536 245.49616 144.251 C 246.21416 143.927 246.33842 143.7329 246.91742 142.0099 C 247.60342 139.9719 248.02785 139.14161 248.32385 139.25761 C 248.46685 139.31361 249.40838 139.42564 250.41738 139.50664 C 255.14338 139.88864 256.97675 140.69452 258.89075 143.2375 C 261.96373 147.3195 258.96292 153.96868 252.74894 156.84566 C 249.32894 158.42966 243.71473 159.67806 238.16773 160.08606 C 236.29473 160.22406 236.21811 160.25326 235.88611 160.96926 C 235.46911 161.86926 233.11727 165.68834 231.56427 167.98932 C 230.71329 169.24932 230.73171 169.32113 231.78671 168.87413 C 232.57071 168.54113 235.39992 168.03665 238.50092 167.67765 C 248.0059 166.57665 250.05918 166.21772 253.47318 165.06072 C 266.98214 160.48574 272.26972 144.4524 263.14174 135.74042 C 260.34524 133.07256 257.51143 131.90321 252.24579 131.42894 z M 181.31523 130.87329 C 180.95696 130.85268 180.57337 130.92717 180.19137 131.11542 C 179.00637 131.69942 178.2743 133.747 178.9053 134.71 C 179.9613 136.323 183.18448 135.19105 183.22248 133.19405 C 183.24723 131.86055 182.39002 130.93512 181.31523 130.87329 z M 181.04806 132.51416 C 181.18851 132.52714 181.33815 132.58114 181.51027 132.67339 C 181.88627 132.87437 181.96874 134.01983 181.62574 134.28983 C 180.43474 135.22783 179.20137 133.7694 180.35835 132.7914 C 180.60523 132.58265 180.81398 132.49254 181.04806 132.51416 z M 171.48535 135.16255 C 171.13751 135.14117 170.84552 135.17955 170.77552 135.29286 C 170.47152 135.78486 170.49942 136.62047 170.83542 137.04747 C 171.23442 137.55447 171.50071 137.50876 171.50071 136.93276 C 171.50071 136.72276 171.65189 136.41422 171.83689 136.24722 C 172.13089 135.98122 172.34495 135.91248 173.08295 135.84548 C 173.17495 135.83748 173.02429 135.68175 172.74929 135.49975 C 172.50229 135.33627 172.04908 135.21944 171.63708 135.17619 C 171.58558 135.17079 171.53504 135.1656 171.48535 135.16255 z M 242.17092 143.00091 C 242.26555 143.00879 242.33279 143.09844 242.33279 143.25079 C 242.33279 143.38779 242.22082 143.50089 242.08282 143.50089 C 241.82284 143.50089 241.75228 143.30383 241.94328 143.11183 C 242.01528 143.03983 242.08854 143.00304 242.1513 143.00111 C 242.15783 143.00091 242.16462 143.00039 242.17092 143.00091 z M 168.637 147.19017 C 169.84015 148.11639 172.60912 148.71063 174.32653 149.6255 C 171.39447 149.83547 167.676 152.60987 166.85529 153.85426 C 166.0651 153.4526 165.02856 153.20394 163.61351 152.59207 C 164.70051 150.61104 167.02982 147.97881 168.637 147.19017 z M 162.61629 154.30457 C 163.63484 154.57639 164.81796 154.93143 165.65751 155.15848 C 165.3069 155.54367 164.9349 156.13114 164.68247 156.58078 C 163.99642 156.33682 163.05056 156.12009 161.91119 155.64721 C 161.99639 155.18063 162.25643 154.66875 162.61629 154.30457 z M 134.13101 152.57864 C 134.12837 152.57846 134.12494 152.57921 134.12111 152.57971 C 134.00615 152.59461 133.3041 152.97954 132.49129 153.47642 C 117.87731 162.4184 110.26134 176.1152 112.98634 188.55418 C 113.07034 188.93618 113.22788 189.70032 113.33388 190.25032 C 113.86588 193.00532 115.91593 197.87447 117.76493 200.77145 C 119.26891 203.12945 119.79762 203.84899 121.42362 205.74997 C 126.4356 211.61297 131.66494 215.8181 139.08394 219.95308 C 141.02492 221.03508 144.4652 222.75876 145.4902 223.16274 C 145.9312 223.33674 146.6194 223.6272 147.0204 223.8102 C 151.76138 225.96918 161.86906 228.90929 168.25004 229.98429 C 197.70098 234.94629 225.19766 228.80735 240.55864 213.84039 C 252.80162 201.91041 254.52689 186.83439 245.25391 172.83243 C 243.47893 170.15343 242.96994 169.66782 241.94394 169.66782 C 238.59396 169.66982 232.69845 171.05298 230.15845 172.43598 C 229.13245 172.99398 229.09073 172.70388 230.65573 175.89088 C 232.69073 180.03488 233.34482 182.22015 233.67882 185.99715 C 234.31382 193.18413 231.27375 200.42256 225.36775 205.78156 C 224.47775 206.58856 223.71298 207.29924 223.66698 207.35824 C 223.62098 207.41824 223.09681 207.82622 222.50081 208.26722 C 214.81283 213.9572 206.02273 217.11587 193.80775 218.57887 C 192.47277 218.73887 186.31646 218.96133 184.83248 218.90333 C 181.82448 218.78633 179.36555 218.63617 178.16655 218.49417 C 174.87457 218.10417 174.01016 217.98934 173.08316 217.82334 C 138.05322 211.54134 120.48823 187.1051 136.41619 166.81314 C 136.94719 166.13614 137.75979 165.19237 138.22077 164.71437 L 139.05773 163.84638 L 137.79055 161.29883 C 136.57055 158.84685 135.48971 156.41019 135.17371 155.39819 C 134.91771 154.57919 134.20867 152.65311 134.13667 152.58111 C 134.13552 152.57992 134.13365 152.57882 134.13101 152.57864 z M 212.57336 185.26816 C 212.25426 185.26194 211.63844 185.67254 210.46687 186.40635 C 191.31891 198.39933 169.61965 196.33374 153.78669 181.01176 C 152.41369 179.68376 152.47407 179.70653 152.13007 180.37451 C 149.27407 185.91551 154.42743 194.67843 163.47841 199.67541 C 170.81739 203.72741 182.56078 205.8424 190.41776 204.5274 C 204.41072 202.18642 212.7653 195.76289 212.8913 187.24991 C 212.91095 185.92126 212.95382 185.30959 212.60254 185.27079 C 212.59285 185.26972 212.58365 185.26836 212.57336 185.26816 z "/>
      <path id="path8" d="m 169.279,143.31 c 0.078,0.299 -3.008,3.023 -3.426,3.023 -0.41589,0.23745 -0.78858,0.64944 -1.1,0.917 -0.457,0.367 -1.732,1.479 -2.833,2.472 -1.685,1.517 -3.998,3.332 -7.308,5.732 -1.08,0.783 -2.848,2.71 -2.659,2.899 0.113,0.113 0.653,-0.197 1.649,-0.946 4.574,-3.44 6.953,-2.333 5.274,2.455 -0.922,2.63 -0.264,2.713 0.776,0.099 1.954,-4.908 2.732,-6.491 4.285,-8.711 1.613,-2.306 4.689,-5.157 7.021,-6.508 0.298,-0.173 0.542,-0.356 0.542,-0.408 0,-0.316 -0.579,-0.834 -0.931,-0.834 -0.227,0 -0.456,-0.113 -0.509,-0.25 -0.148,-0.385 -0.883,-0.329 -0.781,0.06" stroke="none" fill="#e8645c" fill-rule="evenodd" style="display:inline" sodipodi:nodetypes="cccccscccccsscc"/>
    </g>
  </g>
<script xmlns=""/></svg>